<mxfile host="Electron" modified="2023-11-14T11:17:04.402Z" agent="Mozilla/5.0 (Windows NT 10.0; Win64; x64) AppleWebKit/537.36 (KHTML, like Gecko) draw.io/22.0.3 Chrome/114.0.5735.289 Electron/25.8.4 Safari/537.36" etag="kCY8Qk1lgJkMhzaSRFmD" version="22.0.3" type="device">
  <diagram name="Page-1" id="2YBvvXClWsGukQMizWep">
    <mxGraphModel dx="1036" dy="606" grid="1" gridSize="10" guides="1" tooltips="1" connect="1" arrows="1" fold="1" page="1" pageScale="1" pageWidth="850" pageHeight="1100" math="0" shadow="0">
      <root>
        <mxCell id="0" />
        <mxCell id="1" parent="0" />
        <mxCell id="aM9ryv3xv72pqoxQDRHE-1" value="Admin" style="shape=umlLifeline;perimeter=lifelinePerimeter;whiteSpace=wrap;html=1;container=0;dropTarget=0;collapsible=0;recursiveResize=0;outlineConnect=0;portConstraint=eastwest;newEdgeStyle={&quot;edgeStyle&quot;:&quot;elbowEdgeStyle&quot;,&quot;elbow&quot;:&quot;vertical&quot;,&quot;curved&quot;:0,&quot;rounded&quot;:0};" parent="1" vertex="1">
          <mxGeometry x="30" y="30" width="100" height="410" as="geometry" />
        </mxCell>
        <mxCell id="aM9ryv3xv72pqoxQDRHE-2" value="" style="html=1;points=[];perimeter=orthogonalPerimeter;outlineConnect=0;targetShapes=umlLifeline;portConstraint=eastwest;newEdgeStyle={&quot;edgeStyle&quot;:&quot;elbowEdgeStyle&quot;,&quot;elbow&quot;:&quot;vertical&quot;,&quot;curved&quot;:0,&quot;rounded&quot;:0};" parent="aM9ryv3xv72pqoxQDRHE-1" vertex="1">
          <mxGeometry x="45" y="70" width="10" height="290" as="geometry" />
        </mxCell>
        <mxCell id="JBWoJpdDoiDVbsw0DVo4-25" value="" style="edgeStyle=elbowEdgeStyle;rounded=0;orthogonalLoop=1;jettySize=auto;html=1;elbow=vertical;curved=0;" parent="1" source="JBWoJpdDoiDVbsw0DVo4-21" target="JBWoJpdDoiDVbsw0DVo4-24" edge="1">
          <mxGeometry relative="1" as="geometry">
            <Array as="points">
              <mxPoint x="297.5" y="180" />
            </Array>
          </mxGeometry>
        </mxCell>
        <mxCell id="JBWoJpdDoiDVbsw0DVo4-47" value="3:Click()" style="edgeLabel;html=1;align=center;verticalAlign=middle;resizable=0;points=[];" parent="JBWoJpdDoiDVbsw0DVo4-25" vertex="1" connectable="0">
          <mxGeometry x="0.235" y="-2" relative="1" as="geometry">
            <mxPoint x="-14" y="-12" as="offset" />
          </mxGeometry>
        </mxCell>
        <mxCell id="JBWoJpdDoiDVbsw0DVo4-21" value="" style="html=1;points=[];perimeter=orthogonalPerimeter;outlineConnect=0;targetShapes=umlLifeline;portConstraint=eastwest;newEdgeStyle={&quot;edgeStyle&quot;:&quot;elbowEdgeStyle&quot;,&quot;elbow&quot;:&quot;vertical&quot;,&quot;curved&quot;:0,&quot;rounded&quot;:0};" parent="1" vertex="1">
          <mxGeometry x="252.5" y="140" width="10" height="40" as="geometry" />
        </mxCell>
        <mxCell id="JBWoJpdDoiDVbsw0DVo4-27" value="" style="edgeStyle=elbowEdgeStyle;rounded=0;orthogonalLoop=1;jettySize=auto;html=1;elbow=vertical;curved=0;" parent="1" source="JBWoJpdDoiDVbsw0DVo4-24" target="JBWoJpdDoiDVbsw0DVo4-26" edge="1">
          <mxGeometry relative="1" as="geometry">
            <Array as="points">
              <mxPoint x="387.5" y="220" />
            </Array>
          </mxGeometry>
        </mxCell>
        <mxCell id="JBWoJpdDoiDVbsw0DVo4-48" value="3.1:create" style="edgeLabel;html=1;align=center;verticalAlign=middle;resizable=0;points=[];" parent="JBWoJpdDoiDVbsw0DVo4-27" vertex="1" connectable="0">
          <mxGeometry x="-0.3723" relative="1" as="geometry">
            <mxPoint x="5" y="-10" as="offset" />
          </mxGeometry>
        </mxCell>
        <mxCell id="JBWoJpdDoiDVbsw0DVo4-24" value="" style="html=1;points=[];perimeter=orthogonalPerimeter;outlineConnect=0;targetShapes=umlLifeline;portConstraint=eastwest;newEdgeStyle={&quot;edgeStyle&quot;:&quot;elbowEdgeStyle&quot;,&quot;elbow&quot;:&quot;vertical&quot;,&quot;curved&quot;:0,&quot;rounded&quot;:0};" parent="1" vertex="1">
          <mxGeometry x="342.5" y="180" width="10" height="40" as="geometry" />
        </mxCell>
        <mxCell id="JBWoJpdDoiDVbsw0DVo4-29" value="" style="edgeStyle=elbowEdgeStyle;rounded=0;orthogonalLoop=1;jettySize=auto;html=1;elbow=horizontal;curved=0;" parent="1" source="JBWoJpdDoiDVbsw0DVo4-26" target="JBWoJpdDoiDVbsw0DVo4-28" edge="1">
          <mxGeometry relative="1" as="geometry">
            <Array as="points">
              <mxPoint x="467.5" y="260" />
            </Array>
          </mxGeometry>
        </mxCell>
        <mxCell id="JBWoJpdDoiDVbsw0DVo4-49" value="4:create" style="edgeLabel;html=1;align=center;verticalAlign=middle;resizable=0;points=[];" parent="JBWoJpdDoiDVbsw0DVo4-29" vertex="1" connectable="0">
          <mxGeometry x="-0.2427" y="2" relative="1" as="geometry">
            <mxPoint y="-8" as="offset" />
          </mxGeometry>
        </mxCell>
        <mxCell id="JBWoJpdDoiDVbsw0DVo4-26" value="" style="html=1;points=[];perimeter=orthogonalPerimeter;outlineConnect=0;targetShapes=umlLifeline;portConstraint=eastwest;newEdgeStyle={&quot;edgeStyle&quot;:&quot;elbowEdgeStyle&quot;,&quot;elbow&quot;:&quot;vertical&quot;,&quot;curved&quot;:0,&quot;rounded&quot;:0};" parent="1" vertex="1">
          <mxGeometry x="417.5" y="220" width="10" height="40" as="geometry" />
        </mxCell>
        <mxCell id="JBWoJpdDoiDVbsw0DVo4-28" value="" style="html=1;points=[];perimeter=orthogonalPerimeter;outlineConnect=0;targetShapes=umlLifeline;portConstraint=eastwest;newEdgeStyle={&quot;edgeStyle&quot;:&quot;elbowEdgeStyle&quot;,&quot;elbow&quot;:&quot;vertical&quot;,&quot;curved&quot;:0,&quot;rounded&quot;:0};" parent="1" vertex="1">
          <mxGeometry x="502.5" y="260" width="10" height="50" as="geometry" />
        </mxCell>
        <mxCell id="JBWoJpdDoiDVbsw0DVo4-32" value="" style="endArrow=none;dashed=1;html=1;rounded=0;" parent="1" source="JBWoJpdDoiDVbsw0DVo4-35" target="JBWoJpdDoiDVbsw0DVo4-26" edge="1">
          <mxGeometry width="50" height="50" relative="1" as="geometry">
            <mxPoint x="422.5" y="310" as="sourcePoint" />
            <mxPoint x="537.5" y="340" as="targetPoint" />
          </mxGeometry>
        </mxCell>
        <mxCell id="JBWoJpdDoiDVbsw0DVo4-36" value="" style="endArrow=none;dashed=1;html=1;rounded=0;" parent="1" target="JBWoJpdDoiDVbsw0DVo4-35" edge="1">
          <mxGeometry width="50" height="50" relative="1" as="geometry">
            <mxPoint x="422.5" y="310" as="sourcePoint" />
            <mxPoint x="422.5" y="260" as="targetPoint" />
          </mxGeometry>
        </mxCell>
        <mxCell id="JBWoJpdDoiDVbsw0DVo4-41" value="" style="edgeStyle=elbowEdgeStyle;rounded=0;orthogonalLoop=1;jettySize=auto;html=1;elbow=horizontal;curved=0;" parent="1" source="JBWoJpdDoiDVbsw0DVo4-35" target="JBWoJpdDoiDVbsw0DVo4-39" edge="1">
          <mxGeometry relative="1" as="geometry">
            <Array as="points">
              <mxPoint x="467.5" y="380" />
            </Array>
          </mxGeometry>
        </mxCell>
        <mxCell id="JBWoJpdDoiDVbsw0DVo4-53" value="4.3:destroy" style="edgeLabel;html=1;align=center;verticalAlign=middle;resizable=0;points=[];" parent="JBWoJpdDoiDVbsw0DVo4-41" vertex="1" connectable="0">
          <mxGeometry x="-0.5093" y="-3" relative="1" as="geometry">
            <mxPoint x="12" y="-13" as="offset" />
          </mxGeometry>
        </mxCell>
        <mxCell id="JBWoJpdDoiDVbsw0DVo4-35" value="" style="html=1;points=[];perimeter=orthogonalPerimeter;outlineConnect=0;targetShapes=umlLifeline;portConstraint=eastwest;newEdgeStyle={&quot;edgeStyle&quot;:&quot;elbowEdgeStyle&quot;,&quot;elbow&quot;:&quot;vertical&quot;,&quot;curved&quot;:0,&quot;rounded&quot;:0};" parent="1" vertex="1">
          <mxGeometry x="417.5" y="310" width="10" height="70" as="geometry" />
        </mxCell>
        <mxCell id="JBWoJpdDoiDVbsw0DVo4-37" value="" style="endArrow=classic;html=1;rounded=0;entryX=1;entryY=0;entryDx=0;entryDy=0;entryPerimeter=0;" parent="1" source="JBWoJpdDoiDVbsw0DVo4-28" target="JBWoJpdDoiDVbsw0DVo4-35" edge="1">
          <mxGeometry width="50" height="50" relative="1" as="geometry">
            <mxPoint x="487.5" y="290" as="sourcePoint" />
            <mxPoint x="537.5" y="240" as="targetPoint" />
          </mxGeometry>
        </mxCell>
        <mxCell id="JBWoJpdDoiDVbsw0DVo4-51" value="4.2:save" style="edgeLabel;html=1;align=center;verticalAlign=middle;resizable=0;points=[];" parent="JBWoJpdDoiDVbsw0DVo4-37" vertex="1" connectable="0">
          <mxGeometry x="-0.184" y="1" relative="1" as="geometry">
            <mxPoint x="-4" y="-11" as="offset" />
          </mxGeometry>
        </mxCell>
        <mxCell id="JBWoJpdDoiDVbsw0DVo4-38" value="" style="endArrow=none;dashed=1;html=1;rounded=0;" parent="1" source="JBWoJpdDoiDVbsw0DVo4-39" target="JBWoJpdDoiDVbsw0DVo4-28" edge="1">
          <mxGeometry width="50" height="50" relative="1" as="geometry">
            <mxPoint x="507.5" y="340" as="sourcePoint" />
            <mxPoint x="432.5" y="270" as="targetPoint" />
          </mxGeometry>
        </mxCell>
        <mxCell id="JBWoJpdDoiDVbsw0DVo4-39" value="" style="html=1;points=[];perimeter=orthogonalPerimeter;outlineConnect=0;targetShapes=umlLifeline;portConstraint=eastwest;newEdgeStyle={&quot;edgeStyle&quot;:&quot;elbowEdgeStyle&quot;,&quot;elbow&quot;:&quot;vertical&quot;,&quot;curved&quot;:0,&quot;rounded&quot;:0};" parent="1" vertex="1">
          <mxGeometry x="502.5" y="360" width="10" height="20" as="geometry" />
        </mxCell>
        <mxCell id="JBWoJpdDoiDVbsw0DVo4-40" value="Gara" style="ellipse;shape=umlEntity;whiteSpace=wrap;html=1;" parent="1" vertex="1">
          <mxGeometry x="567.5" y="310" width="50" height="50" as="geometry" />
        </mxCell>
        <mxCell id="JBWoJpdDoiDVbsw0DVo4-42" value="" style="endArrow=classic;html=1;rounded=0;" parent="1" source="JBWoJpdDoiDVbsw0DVo4-35" edge="1">
          <mxGeometry width="50" height="50" relative="1" as="geometry">
            <mxPoint x="487.5" y="290" as="sourcePoint" />
            <mxPoint x="567.5" y="340" as="targetPoint" />
            <Array as="points">
              <mxPoint x="507.5" y="340" />
            </Array>
          </mxGeometry>
        </mxCell>
        <mxCell id="JBWoJpdDoiDVbsw0DVo4-52" value="5:create" style="edgeLabel;html=1;align=center;verticalAlign=middle;resizable=0;points=[];" parent="JBWoJpdDoiDVbsw0DVo4-42" vertex="1" connectable="0">
          <mxGeometry x="-0.3514" y="-1" relative="1" as="geometry">
            <mxPoint x="-5" y="-11" as="offset" />
          </mxGeometry>
        </mxCell>
        <mxCell id="JBWoJpdDoiDVbsw0DVo4-43" value="" style="ellipse;shape=umlControl;whiteSpace=wrap;html=1;" parent="1" vertex="1">
          <mxGeometry x="410" y="180" width="25" height="30" as="geometry" />
        </mxCell>
        <mxCell id="JBWoJpdDoiDVbsw0DVo4-44" value=":inserimentoGaraControl" style="text;html=1;strokeColor=none;fillColor=none;align=center;verticalAlign=middle;whiteSpace=wrap;rounded=0;" parent="1" vertex="1">
          <mxGeometry x="477.5" y="180" width="60" height="30" as="geometry" />
        </mxCell>
        <mxCell id="JBWoJpdDoiDVbsw0DVo4-54" value="" style="shape=umlBoundary;whiteSpace=wrap;html=1;" parent="1" vertex="1">
          <mxGeometry x="150" y="60" width="35" height="30" as="geometry" />
        </mxCell>
        <mxCell id="JBWoJpdDoiDVbsw0DVo4-55" value="" style="shape=umlBoundary;whiteSpace=wrap;html=1;" parent="1" vertex="1">
          <mxGeometry x="330" y="130" width="35" height="30" as="geometry" />
        </mxCell>
        <mxCell id="JBWoJpdDoiDVbsw0DVo4-56" value="" style="shape=umlBoundary;whiteSpace=wrap;html=1;" parent="1" vertex="1">
          <mxGeometry x="495" y="220" width="35" height="30" as="geometry" />
        </mxCell>
        <mxCell id="JBWoJpdDoiDVbsw0DVo4-57" value=":inserimentoGaraButton" style="text;html=1;strokeColor=none;fillColor=none;align=center;verticalAlign=middle;whiteSpace=wrap;rounded=0;" parent="1" vertex="1">
          <mxGeometry x="410" y="130" width="60" height="30" as="geometry" />
        </mxCell>
        <mxCell id="JBWoJpdDoiDVbsw0DVo4-58" value=":inserimentoGaraForm" style="text;html=1;strokeColor=none;fillColor=none;align=center;verticalAlign=middle;whiteSpace=wrap;rounded=0;" parent="1" vertex="1">
          <mxGeometry x="567.5" y="220" width="60" height="30" as="geometry" />
        </mxCell>
        <mxCell id="JBWoJpdDoiDVbsw0DVo4-59" value=":accedereSezioneCalendarioButton" style="text;html=1;strokeColor=none;fillColor=none;align=center;verticalAlign=middle;whiteSpace=wrap;rounded=0;" parent="1" vertex="1">
          <mxGeometry x="252.5" y="60" width="60" height="30" as="geometry" />
        </mxCell>
        <mxCell id="JBWoJpdDoiDVbsw0DVo4-60" value="" style="endArrow=none;dashed=1;html=1;rounded=0;" parent="1" target="JBWoJpdDoiDVbsw0DVo4-21" edge="1">
          <mxGeometry width="50" height="50" relative="1" as="geometry">
            <mxPoint x="257.5" y="260" as="sourcePoint" />
            <mxPoint x="267.5" y="190" as="targetPoint" />
          </mxGeometry>
        </mxCell>
        <mxCell id="JBWoJpdDoiDVbsw0DVo4-61" value="" style="endArrow=none;dashed=1;html=1;rounded=0;" parent="1" target="JBWoJpdDoiDVbsw0DVo4-24" edge="1">
          <mxGeometry width="50" height="50" relative="1" as="geometry">
            <mxPoint x="348" y="260" as="sourcePoint" />
            <mxPoint x="267.5" y="190" as="targetPoint" />
          </mxGeometry>
        </mxCell>
        <mxCell id="JBWoJpdDoiDVbsw0DVo4-62" value="" style="endArrow=none;dashed=1;html=1;rounded=0;" parent="1" target="JBWoJpdDoiDVbsw0DVo4-35" edge="1">
          <mxGeometry width="50" height="50" relative="1" as="geometry">
            <mxPoint x="422.5" y="440" as="sourcePoint" />
            <mxPoint x="277.5" y="200" as="targetPoint" />
            <Array as="points">
              <mxPoint x="422.5" y="410" />
            </Array>
          </mxGeometry>
        </mxCell>
        <mxCell id="JBWoJpdDoiDVbsw0DVo4-63" value="" style="endArrow=none;dashed=1;html=1;rounded=0;" parent="1" source="JBWoJpdDoiDVbsw0DVo4-65" target="JBWoJpdDoiDVbsw0DVo4-39" edge="1">
          <mxGeometry width="50" height="50" relative="1" as="geometry">
            <mxPoint x="507.5" y="410" as="sourcePoint" />
            <mxPoint x="417.5" y="380" as="targetPoint" />
            <Array as="points" />
          </mxGeometry>
        </mxCell>
        <mxCell id="JBWoJpdDoiDVbsw0DVo4-64" value="" style="endArrow=none;dashed=1;html=1;rounded=0;" parent="1" edge="1">
          <mxGeometry width="50" height="50" relative="1" as="geometry">
            <mxPoint x="592.5" y="440" as="sourcePoint" />
            <mxPoint x="592.5" y="400" as="targetPoint" />
            <Array as="points">
              <mxPoint x="592.5" y="400" />
              <mxPoint x="592.5" y="360" />
            </Array>
          </mxGeometry>
        </mxCell>
        <mxCell id="JBWoJpdDoiDVbsw0DVo4-66" value="" style="endArrow=none;dashed=1;html=1;rounded=0;" parent="1" target="JBWoJpdDoiDVbsw0DVo4-65" edge="1">
          <mxGeometry width="50" height="50" relative="1" as="geometry">
            <mxPoint x="507.5" y="410" as="sourcePoint" />
            <mxPoint x="507.5" y="380" as="targetPoint" />
            <Array as="points">
              <mxPoint x="507.5" y="410" />
            </Array>
          </mxGeometry>
        </mxCell>
        <mxCell id="JBWoJpdDoiDVbsw0DVo4-65" value="" style="shape=umlDestroy;whiteSpace=wrap;html=1;strokeWidth=3;targetShapes=umlLifeline;" parent="1" vertex="1">
          <mxGeometry x="492.5" y="400" width="30" height="30" as="geometry" />
        </mxCell>
        <mxCell id="mKw-MmzPMTv42nCog8gd-1" value="" style="endArrow=none;dashed=1;html=1;rounded=0;" parent="1" edge="1">
          <mxGeometry width="50" height="50" relative="1" as="geometry">
            <mxPoint x="257.5" y="440" as="sourcePoint" />
            <mxPoint x="257" y="290" as="targetPoint" />
          </mxGeometry>
        </mxCell>
        <mxCell id="pEpo8-HcoFTTObP-taef-1" value="" style="html=1;points=[[0,0,0,0,5],[0,1,0,0,-5],[1,0,0,0,5],[1,1,0,0,-5]];perimeter=orthogonalPerimeter;outlineConnect=0;targetShapes=umlLifeline;portConstraint=eastwest;newEdgeStyle={&quot;curved&quot;:0,&quot;rounded&quot;:0};" parent="1" vertex="1">
          <mxGeometry x="160" y="100" width="10" height="40" as="geometry" />
        </mxCell>
        <mxCell id="pEpo8-HcoFTTObP-taef-4" value="" style="endArrow=classic;html=1;rounded=0;" parent="1" source="aM9ryv3xv72pqoxQDRHE-1" target="pEpo8-HcoFTTObP-taef-1" edge="1">
          <mxGeometry width="50" height="50" relative="1" as="geometry">
            <mxPoint x="400" y="340" as="sourcePoint" />
            <mxPoint x="450" y="290" as="targetPoint" />
            <Array as="points">
              <mxPoint x="120" y="100" />
            </Array>
          </mxGeometry>
        </mxCell>
        <mxCell id="pEpo8-HcoFTTObP-taef-10" value="1:Click()" style="edgeLabel;html=1;align=center;verticalAlign=middle;resizable=0;points=[];" parent="pEpo8-HcoFTTObP-taef-4" vertex="1" connectable="0">
          <mxGeometry x="0.2248" relative="1" as="geometry">
            <mxPoint x="-18" y="-10" as="offset" />
          </mxGeometry>
        </mxCell>
        <mxCell id="pEpo8-HcoFTTObP-taef-5" value="" style="endArrow=classic;html=1;rounded=0;" parent="1" source="pEpo8-HcoFTTObP-taef-1" target="JBWoJpdDoiDVbsw0DVo4-21" edge="1">
          <mxGeometry width="50" height="50" relative="1" as="geometry">
            <mxPoint x="400" y="340" as="sourcePoint" />
            <mxPoint x="450" y="290" as="targetPoint" />
          </mxGeometry>
        </mxCell>
        <mxCell id="pEpo8-HcoFTTObP-taef-13" value="2:create" style="edgeLabel;html=1;align=center;verticalAlign=middle;resizable=0;points=[];" parent="pEpo8-HcoFTTObP-taef-5" vertex="1" connectable="0">
          <mxGeometry x="0.0376" relative="1" as="geometry">
            <mxPoint x="-13" y="-10" as="offset" />
          </mxGeometry>
        </mxCell>
        <mxCell id="pEpo8-HcoFTTObP-taef-6" value="" style="ellipse;shape=umlControl;whiteSpace=wrap;html=1;" parent="1" vertex="1">
          <mxGeometry x="250" y="100" width="25" height="30" as="geometry" />
        </mxCell>
        <mxCell id="pEpo8-HcoFTTObP-taef-7" value=":visualizzaSezioneGaraControl" style="text;html=1;strokeColor=none;fillColor=none;align=center;verticalAlign=middle;whiteSpace=wrap;rounded=0;" parent="1" vertex="1">
          <mxGeometry x="330" y="100" width="60" height="30" as="geometry" />
        </mxCell>
        <mxCell id="pEpo8-HcoFTTObP-taef-14" value="" style="endArrow=classic;html=1;rounded=0;" parent="1" source="aM9ryv3xv72pqoxQDRHE-1" target="JBWoJpdDoiDVbsw0DVo4-28" edge="1">
          <mxGeometry width="50" height="50" relative="1" as="geometry">
            <mxPoint x="400" y="340" as="sourcePoint" />
            <mxPoint x="450" y="290" as="targetPoint" />
            <Array as="points">
              <mxPoint x="290" y="280" />
            </Array>
          </mxGeometry>
        </mxCell>
        <mxCell id="pEpo8-HcoFTTObP-taef-15" value="4.1:Selezione nome dall&#39;elenco delle gare ufficiali di F1" style="edgeLabel;html=1;align=center;verticalAlign=middle;resizable=0;points=[];" parent="pEpo8-HcoFTTObP-taef-14" vertex="1" connectable="0">
          <mxGeometry x="-0.2752" y="-5" relative="1" as="geometry">
            <mxPoint x="-12" y="-15" as="offset" />
          </mxGeometry>
        </mxCell>
        <mxCell id="pEpo8-HcoFTTObP-taef-16" value="" style="endArrow=none;dashed=1;html=1;rounded=0;" parent="1" edge="1">
          <mxGeometry width="50" height="50" relative="1" as="geometry">
            <mxPoint x="350" y="440" as="sourcePoint" />
            <mxPoint x="350" y="290" as="targetPoint" />
          </mxGeometry>
        </mxCell>
      </root>
    </mxGraphModel>
  </diagram>
</mxfile>
